# xmcd
#
# Track frame offsets:
#	150
#	13875
#	28400
#	44885
#	72125
#	88450
#	106192
#	121745
#	137041
#	151013
#	165150
#	178617
#
# Disc length: 2667 seconds
#
# Revision: 0
# Processed by: cddbd v1.5.1PL0 Copyright (c) Steve Scherf et al.
# Submitted via: audiograbber 1.83.01
#
DISCID=9d0a690c
DTITLE=Various Artist - Party Mix
DYEAR=1900
DGENRE=
TTITLE0=Marianne Rosenberg - Medley
TTITLE1=Howard Carpendale - Medley
TTITLE2=Christian Anders - Medley
TTITLE3=Caterina Valente - Medley
TTITLE4=Vicky Leandros - Medley
TTITLE5=Peter Alexander - Medley
TTITLE6=Roy Black - Medley
TTITLE7=Rosanna Rocci - Medley
TTITLE8=Peter Kraus - Medley
TTITLE9=Freddy Quinn - Medley
TTITLE10=Kümmerlinge - Kegeltourlied 'Huldio'
TTITLE11=Kümmerlinge - Stadtlohn an der Berkel
EXTD=
EXTT0=
EXTT1=
EXTT2=
EXTT3=
EXTT4=
EXTT5=
EXTT6=
EXTT7=
EXTT8=
EXTT9=
EXTT10=
EXTT11=
PLAYORDER=
